<?xml version="1.0" encoding="UTF-8"?>
<svg version="1.1" xmlns="http://www.w3.org/2000/svg" xmlns:xlink="http://www.w3.org/1999/xlink">
<defs>

</defs>
<symbol id="i-briefcase" xmlns="http://www.w3.org/2000/svg" viewBox="0 0 437.215 437.215"><path d="M252.689 264.632h-14.321v-10.221h-39.521v10.221h-14.321v-19.647h68.166v19.647h-.003zm0-42.357h-68.165v-17.464h14.321v8.037h39.521v-8.037h14.322v17.464h.001z"/><path d="M426.443 96.542H318.768v-48.12c0-17.815-14.496-32.31-32.311-32.31H150.754c-17.815 0-32.308 14.494-32.308 32.31v48.12H10.77c-5.948 0-10.77 4.821-10.77 10.77v303.019c0 5.949 4.821 10.771 10.77 10.771h415.673c5.951 0 10.771-4.821 10.771-10.771v-303.02c-.001-5.948-4.819-10.769-10.771-10.769zM161.528 59.191h114.16v37.351h-114.16V59.191zm239.019 185.793h-38.508c-.117 0-.232-.015-.352-.017h-88.576v31.783c0 4.58-3.726 8.306-8.303 8.306h-26.441v25.796a4.306 4.306 0 01-1.084 2.854l-15.467 17.401a4.294 4.294 0 01-6.42 0l-15.466-17.401a4.297 4.297 0 01-1.085-2.854v-25.796h-26.438c-4.58 0-8.306-3.726-8.306-8.306v-31.783H75.525c-.117.003-.232.017-.351.017H36.668c-6.317 0-11.439-5.121-11.439-11.438 0-6.316 5.122-11.438 11.439-11.438h127.434v-29.417c0-4.58 3.726-8.305 8.306-8.305h26.439v-17.785a4.296 4.296 0 014.296-4.296h30.931a4.296 4.296 0 014.295 4.296v17.785h26.441c4.578 0 8.303 3.725 8.303 8.305v29.417h127.436c6.316 0 11.438 5.121 11.438 11.438-.001 6.317-5.124 11.438-11.44 11.438z"/></symbol>
<symbol id="i-chat" xmlns="http://www.w3.org/2000/svg" viewBox="0 -18 512 512"><path d="M430 125v175H112v95h299.676L512 476.516V125zm0 0"/><path d="M400 0H0v351.516L100.324 270H400zM280 180H82v-30h198zm40-60H82V90h238zm0 0"/></symbol>
<symbol id="i-github-link" xmlns="http://www.w3.org/2000/svg" viewBox="0 0 291.32 291.32"><path d="M145.66 0C65.219 0 0 65.219 0 145.66c0 80.45 65.219 145.66 145.66 145.66s145.66-65.21 145.66-145.66C291.319 65.219 226.1 0 145.66 0zm40.802 256.625c-.838-11.398-1.775-25.518-1.83-31.235-.364-4.388-.838-15.549-11.434-22.677 42.068-3.523 62.087-26.774 63.526-57.499 1.202-17.497-5.754-32.883-18.107-45.3.628-13.282-.401-29.023-1.256-35.941-9.486-2.731-31.608 8.949-37.79 13.947-13.037-5.062-44.945-6.837-64.336 0-13.747-9.668-29.396-15.64-37.926-13.974-7.875 17.452-2.813 33.948-1.275 35.914-10.142 9.268-24.289 20.675-20.447 44.572 6.163 35.04 30.816 53.94 70.508 58.564-8.466 1.73-9.896 8.048-10.606 10.788-26.656 10.997-34.275-6.791-37.644-11.425-11.188-13.847-21.23-9.832-21.849-9.614-.601.218-1.056 1.092-.992 1.511.564 2.986 6.655 6.018 6.955 6.263 8.257 6.154 11.316 17.27 13.2 20.438 11.844 19.473 39.374 11.398 39.638 11.562.018 1.702-.191 16.032-.355 27.184C64.245 245.992 27.311 200.2 27.311 145.66c0-65.365 52.984-118.348 118.348-118.348S264.008 80.295 264.008 145.66c0 51.008-32.318 94.332-77.546 110.965z"/></symbol>
<symbol id="i-homepage" xmlns="http://www.w3.org/2000/svg" viewBox="0 0 392.186 392.186"><path d="M368.62 17.951H23.568C10.57 17.951 0 28.524 0 41.52v309.146c0 12.996 10.57 23.568 23.568 23.568h345.053c12.994 0 23.564-10.572 23.564-23.568V41.52c.003-12.995-10.571-23.569-23.565-23.569zm-71.06 39.577a8.703 8.703 0 018.701-8.703h8.703a8.7 8.7 0 018.701 8.703v9.863a8.702 8.702 0 01-8.701 8.702h-8.703a8.702 8.702 0 01-8.701-8.702v-9.863zm-40.467 0a8.704 8.704 0 018.703-8.703h8.701a8.704 8.704 0 018.703 8.703v9.863a8.703 8.703 0 01-8.703 8.702h-8.701a8.703 8.703 0 01-8.703-8.702v-9.863zm106.81 288.423H28.282V102.235h335.621v243.716zm.229-278.56a8.702 8.702 0 01-8.701 8.702h-8.703a8.7 8.7 0 01-8.702-8.702v-9.863a8.703 8.703 0 018.702-8.703h8.703a8.701 8.701 0 018.701 8.703v9.863z"/><path d="M84.185 233.284l63.084 29.336a12.269 12.269 0 0011.76-.786 12.214 12.214 0 005.666-10.334v-.322c0-4.752-2.785-9.116-7.096-11.118l-39.455-18.332 39.455-18.334a12.302 12.302 0 007.096-11.117v-.319c0-4.21-2.119-8.075-5.666-10.334a12.242 12.242 0 00-6.605-1.916c-1.779 0-3.563.391-5.16 1.133l-63.08 29.333a12.305 12.305 0 00-7.09 11.117v.877c-.001 4.741 2.78 9.104 7.091 11.116zM165.257 293.036a12.303 12.303 0 009.9 5.03h.316a12.218 12.218 0 0011.672-8.517L228.7 160.788a12.3 12.3 0 00-1.771-10.973 12.301 12.301 0 00-9.901-5.03h-.315a12.224 12.224 0 00-11.679 8.516l-41.559 128.771a12.316 12.316 0 001.782 10.964zM227.49 192.276c0 4.745 2.783 9.109 7.095 11.123l39.455 18.329-39.455 18.33a12.304 12.304 0 00-7.095 11.118v.322a12.21 12.21 0 005.668 10.336 12.25 12.25 0 006.595 1.924c1.793 0 3.528-.383 5.17-1.142l63.08-29.335c4.307-2.009 7.09-6.372 7.09-11.115v-.877c0-4.748-2.783-9.113-7.094-11.117l-63.08-29.333a12.296 12.296 0 00-5.152-1.131c-2.355 0-4.643.661-6.604 1.912a12.2 12.2 0 00-5.67 10.337v.318h-.003v.001z"/></symbol>
<symbol id="i-icons" xmlns="http://www.w3.org/2000/svg"/>
<symbol id="i-next" xmlns="http://www.w3.org/2000/svg" viewBox="0 0 300 300"><path d="M150 0C67.157 0 0 67.157 0 150c0 82.841 67.157 150 150 150s150-67.159 150-150C300 67.157 232.843 0 150 0zm45.708 160.159a14.146 14.146 0 01-2.368 1.886l-56.295 56.295c-2.734 2.736-6.318 4.103-9.902 4.103s-7.166-1.367-9.902-4.103c-5.47-5.47-5.47-14.34 0-19.808l48.509-48.516-48.265-48.265c-5.47-5.473-5.47-14.34 0-19.808 5.47-5.47 14.338-5.467 19.808-.003l56.046 56.043a13.956 13.956 0 012.365 1.886c2.796 2.796 4.145 6.479 4.082 10.146.066 3.665-1.28 7.346-4.078 10.144z"/></symbol>
<symbol id="i-pause-button" xmlns="http://www.w3.org/2000/svg" viewBox="0 0 314.065 314.064"><path d="M125.632 109.931c-8.666 0-15.701 7.027-15.701 15.701v62.793c0 8.668 7.035 15.701 15.701 15.701s15.701-7.033 15.701-15.701v-62.793c0-8.682-7.035-15.701-15.701-15.701zm167.37-31.402C249.646 3.434 153.618-22.298 78.529 21.066 3.434 64.417-22.298 160.44 21.066 235.532c43.35 75.095 139.375 100.83 214.465 57.47 75.096-43.364 100.832-139.384 57.471-214.473zM219.834 265.8c-60.067 34.692-136.894 14.106-171.576-45.973C13.568 159.76 34.161 82.933 94.23 48.259c60.071-34.69 136.894-14.106 171.578 45.971 34.685 60.075 14.098 136.885-45.974 171.57zm-31.402-155.869c-8.664 0-15.701 7.027-15.701 15.701v62.793c0 8.668 7.037 15.709 15.701 15.709 8.668 0 15.701-7.033 15.701-15.709v-62.793c0-8.682-7.033-15.701-15.701-15.701z"/></symbol>
<symbol id="i-play-button" xmlns="http://www.w3.org/2000/svg" viewBox="0 0 314.068 314.068"><path d="M293.002 78.53C249.646 3.435 153.618-22.296 78.529 21.068 3.434 64.418-22.298 160.442 21.066 235.534c43.35 75.095 139.375 100.83 214.465 57.47 75.096-43.365 100.84-139.384 57.471-214.474zm-73.168 187.271c-60.067 34.692-136.894 14.106-171.576-45.973C13.568 159.761 34.161 82.935 94.23 48.26c60.071-34.69 136.894-14.106 171.578 45.971 34.685 60.076 14.098 136.886-45.974 171.57zm-6.279-115.149l-82.214-47.949c-7.492-4.374-13.535-.877-13.493 7.789l.421 95.174c.038 8.664 6.155 12.191 13.669 7.851l81.585-47.103c7.506-4.332 7.522-11.388.032-15.762z"/></symbol>
<symbol id="i-skills" xmlns="http://www.w3.org/2000/svg" viewBox="0 0 455 455"><circle cx="97.869" cy="56.027" r="35.494"/><path d="M112.869 229.573h-30V121.03H24.951v168.543h18.598V455H152.19V289.573h18.598V121.03h-57.919z"/><circle cx="395.147" cy="34.901" r="34.901"/><circle cx="395.147" cy="420.098" r="34.902"/><circle cx="395.147" cy="291.699" r="34.902"/><circle cx="395.147" cy="163.3" r="34.901"/><path d="M260.517 212.5h-39.73v30h39.73v192.598h69.729v-30h-39.729v-98.399h39.729v-30h-39.729v-98.398h39.729v-30h-39.729V49.902h39.729v-30h-69.729z"/></symbol>
<symbol id="i-telegram-link" viewBox="0 0 24 24" xmlns="http://www.w3.org/2000/svg"><path d="M12 24c6.629 0 12-5.371 12-12S18.629 0 12 0 0 5.371 0 12s5.371 12 12 12zM5.491 11.74l11.57-4.461c.537-.194 1.006.131.832.943l.001-.001-1.97 9.281c-.146.658-.537.818-1.084.508l-3-2.211-1.447 1.394c-.16.16-.295.295-.605.295l.213-3.053 5.56-5.023c.242-.213-.054-.333-.373-.121l-6.871 4.326-2.962-.924c-.643-.204-.657-.643.136-.953z"/></symbol>
<symbol id="i-vk-link" xmlns="http://www.w3.org/2000/svg" viewBox="0 0 97.75 97.75"><path d="M48.875 0C21.883 0 0 21.882 0 48.875S21.883 97.75 48.875 97.75 97.75 75.868 97.75 48.875 75.867 0 48.875 0zm24.792 54.161c2.278 2.225 4.688 4.319 6.733 6.774.906 1.086 1.76 2.209 2.41 3.472.928 1.801.09 3.776-1.522 3.883l-10.013-.002c-2.586.214-4.644-.829-6.379-2.597-1.385-1.409-2.67-2.914-4.004-4.371-.545-.598-1.119-1.161-1.803-1.604-1.365-.888-2.551-.616-3.333.81-.797 1.451-.979 3.059-1.055 4.674-.109 2.361-.821 2.978-3.19 3.089-5.062.237-9.865-.531-14.329-3.083-3.938-2.251-6.986-5.428-9.642-9.025-5.172-7.012-9.133-14.708-12.692-22.625-.801-1.783-.215-2.737 1.752-2.774 3.268-.063 6.536-.055 9.804-.003 1.33.021 2.21.782 2.721 2.037 1.766 4.345 3.931 8.479 6.644 12.313.723 1.021 1.461 2.039 2.512 2.76 1.16.796 2.044.533 2.591-.762.35-.823.501-1.703.577-2.585.26-3.021.291-6.041-.159-9.05-.28-1.883-1.339-3.099-3.216-3.455-.956-.181-.816-.535-.351-1.081.807-.944 1.563-1.528 3.074-1.528l11.313-.002c1.783.35 2.183 1.15 2.425 2.946l.01 12.572c-.021.695.349 2.755 1.597 3.21 1 .33 1.66-.472 2.258-1.105 2.713-2.879 4.646-6.277 6.377-9.794.764-1.551 1.423-3.156 2.063-4.764.476-1.189 1.216-1.774 2.558-1.754l10.894.013c.321 0 .647.003.965.058 1.836.314 2.339 1.104 1.771 2.895-.894 2.814-2.631 5.158-4.329 7.508-1.82 2.516-3.761 4.944-5.563 7.471-1.656 2.31-1.525 3.473.531 5.479z"/></symbol>
<symbol id="i-web" xmlns="http://www.w3.org/2000/svg" viewBox="0 0 512 512"><path d="M246.857 455.835v-81.371a194.146 194.146 0 00-54.72 10.45c12.489 38.108 32.311 65.052 54.72 70.921zM187.099 367.15a211.412 211.412 0 0159.758-10.953v-54.482h-68.343a309.59 309.59 0 008.585 65.435zM178.514 283.429h68.343v-54.482a211.457 211.457 0 01-59.758-10.971 309.472 309.472 0 00-8.585 65.453zM246.857 210.651V129.28c-22.409 5.87-42.231 32.814-54.72 70.958a194.16 194.16 0 0054.72 10.413zM319.863 384.914a194.167 194.167 0 00-54.72-10.423v81.371c22.409-5.896 42.231-32.84 54.72-70.948zM324.901 217.993a211.412 211.412 0 01-59.758 10.953v54.482h68.343a309.59 309.59 0 00-8.585-65.435zM333.486 301.714h-68.343v54.482a211.457 211.457 0 0159.758 10.971 309.472 309.472 0 008.585-65.453zM206.126 135.771a164.564 164.564 0 00-63.433 37.751 167.391 167.391 0 0032.302 19.877 168.012 168.012 0 0131.131-57.628zM142.693 411.621a164.577 164.577 0 0063.433 37.751 168.007 168.007 0 01-31.131-57.6 167.274 167.274 0 00-32.302 19.849zM351.762 283.429h68.343a163.655 163.655 0 00-38.181-96.594 185.447 185.447 0 01-39.735 24.366 325.975 325.975 0 019.573 72.228zM169.81 211.2a185.482 185.482 0 01-39.735-24.347 163.66 163.66 0 00-38.181 96.576h68.343a326.11 326.11 0 019.573-72.229zM342.19 373.943a185.482 185.482 0 0139.735 24.347 163.66 163.66 0 0038.181-96.576h-68.343a326.11 326.11 0 01-9.573 72.229zM305.874 449.371a164.564 164.564 0 0063.433-37.751 167.391 167.391 0 00-32.302-19.877 168.003 168.003 0 01-31.131 57.628zM484.571 0H27.429C12.28 0 0 12.28 0 27.429v27.429h512V27.429C512 12.28 499.72 0 484.571 0zM45.714 36.571h-9.143a9.143 9.143 0 010-18.286h9.143a9.143 9.143 0 010 18.286zm43.063-2.651a10.565 10.565 0 01-3.017 1.92 8.62 8.62 0 01-6.949 0 10.551 10.551 0 01-3.017-1.92 9.27 9.27 0 010-12.983 10.565 10.565 0 013.017-1.92 8.377 8.377 0 016.949 0 10.551 10.551 0 013.017 1.92 9.27 9.27 0 010 12.983zm38.492-3.017a10.551 10.551 0 01-1.92 3.017 9.27 9.27 0 01-12.983 0 10.565 10.565 0 01-1.92-3.017 8.612 8.612 0 010-6.949 10.551 10.551 0 011.92-3.017 9.145 9.145 0 0115.635 6.491c.031 1.2-.22 2.39-.732 3.475zm348.16 5.668H164.571a9.143 9.143 0 010-18.286h310.857a9.143 9.143 0 019.143 9.143 9.142 9.142 0 01-9.142 9.143zM265.143 129.307v81.371a194.146 194.146 0 0054.72-10.45c-12.489-38.107-32.311-65.051-54.72-70.921z"/><path d="M0 484.571C0 499.72 12.28 512 27.429 512h457.143C499.72 512 512 499.72 512 484.571V73.143H0v411.428zm121.225-315.209l.037.018c.223-.467.486-.913.786-1.335a8.183 8.183 0 011.362-1.024 182.034 182.034 0 01265.142 0c.489.293.945.636 1.362 1.024.3.421.563.868.786 1.335 64.159 69.597 64.159 176.785 0 246.382a8.987 8.987 0 01-.786 1.335c-.397.344-.826.65-1.28.914a182.033 182.033 0 01-265.271.082 8.416 8.416 0 01-1.353-1.015 8.936 8.936 0 01-.786-1.335c-64.158-69.596-64.158-176.784.001-246.381z"/><path d="M169.81 373.943a325.992 325.992 0 01-9.573-72.229H91.895a163.655 163.655 0 0038.181 96.594 185.436 185.436 0 0139.734-24.365zM369.307 173.522a164.577 164.577 0 00-63.433-37.751 168.007 168.007 0 0131.131 57.6 167.274 167.274 0 0032.302-19.849z"/></symbol>
</svg>