<svg xmlns="http://www.w3.org/2000/svg" xmlns:xlink="http://www.w3.org/1999/xlink" viewBox="0 0 437.215 437.215">
	<path d="M252.689,264.632h-14.321v-10.221h-39.521v10.221h-14.321v-19.647h68.166v19.647H252.689z M252.689,222.275h-68.165 v-17.464h14.321v8.037h39.521v-8.037h14.322V222.275L252.689,222.275z"/>
	<path d="M426.443,96.542H318.768v-48.12c0-17.815-14.496-32.31-32.311-32.31H150.754c-17.815,0-32.308,14.494-32.308,32.31v48.12 H10.77c-5.948,0-10.77,4.821-10.77,10.77v303.019c0,5.949,4.821,10.771,10.77,10.771h415.673c5.951,0,10.771-4.821,10.771-10.771 v-303.02C437.213,101.363,432.395,96.542,426.443,96.542z M161.528,59.191h114.16v37.351h-114.16V59.191L161.528,59.191z  M400.547,244.984h-38.508c-0.117,0-0.232-0.015-0.352-0.017h-88.576v31.783c0,4.58-3.726,8.306-8.303,8.306h-26.441v25.796 c0,1.053-0.387,2.066-1.084,2.854l-15.467,17.401c-0.816,0.917-1.982,1.442-3.209,1.442c-1.228,0-2.396-0.525-3.211-1.442 l-15.466-17.401c-0.699-0.787-1.085-1.802-1.085-2.854v-25.796h-26.438c-4.58,0-8.306-3.726-8.306-8.306v-31.783H75.525 c-0.117,0.003-0.232,0.017-0.351,0.017H36.668c-6.317,0-11.439-5.121-11.439-11.438c0-6.316,5.122-11.438,11.439-11.438h38.507 h88.927v-29.417c0-4.58,3.726-8.305,8.306-8.305h26.439v-17.785c0-2.373,1.924-4.296,4.296-4.296h30.931 c2.371,0,4.295,1.923,4.295,4.296v17.785h26.441c4.578,0,8.303,3.725,8.303,8.305v29.417h88.928h38.508 c6.316,0,11.438,5.121,11.438,11.438C411.986,239.863,406.863,244.984,400.547,244.984z"/>
</svg>